<?xml version="1.0" encoding="UTF-8"?>
<!DOCTYPE svg PUBLIC "-//W3C//DTD SVG 1.1//EN" "http://www.w3.org/Graphics/SVG/1.1/DTD/svg11.dtd">
<!-- Creator: CorelDRAW -->
<svg xmlns="http://www.w3.org/2000/svg" xml:space="preserve" width="2048px" height="2048px" style="shape-rendering:geometricPrecision; text-rendering:geometricPrecision; image-rendering:optimizeQuality; fill-rule:evenodd; clip-rule:evenodd"
viewBox="0 0 2048 2048"
 xmlns:xlink="http://www.w3.org/1999/xlink">
 <defs>
  <style type="text/css">
   <![CDATA[
    .fil2 {fill:none}
    .fil5 {fill:#073E57}
    .fil3 {fill:#0C4B68}
    .fil1 {fill:#26A69A}
    .fil4 {fill:#408E0F}
    .fil10 {fill:#424242}
    .fil8 {fill:#4D4D4D}
    .fil9 {fill:#757575}
    .fil0 {fill:#80CBC4}
    .fil11 {fill:#BDBDBD}
    .fil7 {fill:#F39C12}
    .fil6 {fill:#FFFFFE;fill-rule:nonzero}
   ]]>
  </style>
   <clipPath id="id0">
    <path d="M1024 -0.0011811c565.541,0 1024,458.461 1024,1024 0,565.541 -458.461,1024 -1024,1024 -565.541,0 -1024,-458.461 -1024,-1024 0,-565.541 458.461,-1024 1024,-1024z"/>
   </clipPath>
 </defs>
 <g id="Layer_x0020_1">
  <metadata id="CorelCorpID_0Corel-Layer"/>
  <path class="fil0" d="M1024 -0.0011811c565.541,0 1024,458.461 1024,1024 0,565.541 -458.461,1024 -1024,1024 -565.541,0 -1024,-458.461 -1024,-1024 0,-565.541 458.461,-1024 1024,-1024z"/>
  <g style="clip-path:url(#id0)">
   <g id="_385664944">
    <g>
     <polygon id="_2755098561" class="fil1" points="1113.72,622.056 2249.6,1757.94 2255.04,1764.03 2260.32,1770.26 1124.44,634.382 1119.16,628.146 "/>
     <polygon id="_275509928" class="fil1" points="1124.44,634.382 2260.32,1770.26 2260.85,1770.9 2261.37,1771.55 2261.89,1772.19 2262.41,1772.83 2262.93,1773.48 2263.45,1774.13 2263.97,1774.78 2264.48,1775.43 1128.6,639.546 1128.08,638.895 1127.57,638.247 1127.05,637.599 1126.53,636.952 1126.01,636.308 1125.49,635.665 1124.97,635.023 "/>
     <polygon id="_275509520" class="fil1" points="1128.6,639.546 2264.48,1775.43 2265.04,1776.14 1129.16,640.26 "/>
     <polygon id="_275510024" class="fil1" points="1129.16,640.26 2265.04,1776.14 2265.51,1776.75 2265.98,1777.35 2266.45,1777.96 2266.92,1778.57 2267.38,1779.18 2267.85,1779.79 2268.31,1780.4 2268.77,1781.02 1132.89,645.133 1132.43,644.519 1131.97,643.907 1131.5,643.296 1131.04,642.686 1130.57,642.077 1130.1,641.47 1129.63,640.864 "/>
     <polygon id="_275510912" class="fil1" points="1132.89,645.133 2268.77,1781.02 2269.43,1781.89 1133.55,646.006 "/>
     <polygon id="_275510432" class="fil1" points="1133.55,646.006 2269.43,1781.89 2269.9,1782.52 2270.37,1783.16 2270.83,1783.79 2271.3,1784.43 2271.76,1785.07 2272.23,1785.71 2272.69,1786.35 2273.15,1786.99 1137.26,651.106 1136.8,650.463 1136.34,649.823 1135.88,649.184 1135.42,648.545 1134.95,647.908 1134.49,647.273 1134.02,646.639 "/>
     <polygon id="_275510456" class="fil1" points="1137.26,651.106 2273.15,1786.99 2273.55,1787.55 1137.67,651.673 "/>
     <polygon id="_275511560" class="fil1" points="1137.67,651.673 2273.55,1787.55 2274.04,1788.25 2274.53,1788.94 2275.01,1789.63 2275.5,1790.33 2275.98,1791.02 2276.46,1791.72 2276.94,1792.42 2277.41,1793.12 1141.53,657.24 1141.06,656.54 1140.58,655.839 1140.1,655.141 1139.62,654.446 1139.13,653.75 1138.65,653.057 1138.16,652.363 "/>
     <polygon id="_275511320" class="fil1" points="1141.53,657.24 2277.41,1793.12 2277.81,1793.72 1141.93,657.834 "/>
     <polygon id="_275511800" class="fil1" points="1141.93,657.834 2277.81,1793.72 2278.26,1794.38 2278.7,1795.04 2279.14,1795.71 2279.58,1796.38 2280.02,1797.05 2280.46,1797.71 2280.89,1798.39 2281.33,1799.06 1145.44,663.175 1145.01,662.503 1144.58,661.832 1144.14,661.164 1143.7,660.495 1143.26,659.828 1142.82,659.162 1142.37,658.498 "/>
     <polygon id="_275511584" class="fil1" points="1145.44,663.175 2281.33,1799.06 2281.82,1799.83 1145.94,663.952 "/>
     <polygon id="_275511368" class="fil1" points="1145.94,663.952 2281.82,1799.83 2282.24,1800.49 2282.66,1801.15 2283.08,1801.82 2283.49,1802.48 2283.91,1803.14 2284.32,1803.81 2284.73,1804.47 2285.13,1805.14 1149.25,669.259 1148.84,668.592 1148.44,667.926 1148.02,667.261 1147.61,666.597 1147.19,665.933 1146.78,665.272 1146.36,664.612 "/>
     <polygon id="_275511152" class="fil1" points="1149.25,669.259 2285.13,1805.14 2285.6,1805.9 1149.72,670.022 "/>
     <polygon id="_275511632" class="fil1" points="1149.72,670.022 2285.6,1805.9 2286.03,1806.61 2286.45,1807.31 2286.87,1808.02 2287.29,1808.73 2287.71,1809.44 2288.13,1810.15 2288.54,1810.86 2288.95,1811.57 1153.07,675.691 1152.66,674.978 1152.24,674.266 1151.83,673.556 1151.41,672.846 1150.99,672.139 1150.57,671.432 1150.14,670.726 "/>
     <polygon id="_275511488" class="fil1" points="1153.07,675.691 2288.95,1811.57 2289.22,1812.04 1153.34,676.153 "/>
     <polygon id="_275511680" class="fil1" points="1153.34,676.153 2289.22,1812.04 2289.64,1812.77 2290.06,1813.51 2290.48,1814.25 2290.89,1814.99 2291.31,1815.73 2291.72,1816.48 2292.13,1817.22 2292.53,1817.97 1156.65,682.084 1156.25,681.338 1155.84,680.593 1155.42,679.85 1155.01,679.108 1154.6,678.368 1154.18,677.628 1153.76,676.89 "/>
     <polygon id="_275512376" class="fil1" points="1156.65,682.084 2292.53,1817.97 2292.9,1818.64 1157.02,682.76 "/>
     <polygon id="_275512040" class="fil1" points="1157.02,682.76 2292.9,1818.64 2293.28,1819.35 2293.66,1820.06 2294.04,1820.77 2294.42,1821.48 2294.79,1822.2 2295.17,1822.91 2295.54,1823.62 2295.91,1824.34 1160.03,688.459 1159.66,687.742 1159.28,687.028 1158.91,686.313 1158.54,685.601 1158.16,684.889 1157.78,684.178 1157.4,683.469 "/>
     <polygon id="_275512520" class="fil1" points="1160.03,688.459 2295.91,1824.34 2296.26,1825.04 1160.38,689.154 "/>
     <polygon id="_275512064" class="fil1" points="1160.38,689.154 2296.26,1825.04 2296.64,1825.77 2297,1826.5 2297.37,1827.23 2297.74,1827.97 2298.1,1828.7 2298.46,1829.44 2298.82,1830.17 2299.18,1830.91 1163.3,695.03 1162.94,694.291 1162.58,693.553 1162.22,692.817 1161.86,692.083 1161.49,691.348 1161.12,690.616 1160.75,689.884 "/>
     <polygon id="_275511824" class="fil1" points="1163.3,695.03 2299.18,1830.91 2299.45,1831.47 1163.57,695.584 "/>
     <polygon id="_275511896" class="fil1" points="1163.57,695.584 2299.45,1831.47 2299.83,1832.24 2300.2,1833.03 2300.57,1833.81 2300.93,1834.59 2301.3,1835.37 2301.66,1836.16 2302.02,1836.94 2302.38,1837.73 1166.5,701.848 1166.14,701.06 1165.78,700.275 1165.42,699.49 1165.05,698.706 1164.68,697.923 1164.32,697.143 1163.94,696.362 "/>
     <polygon id="_275512280" class="fil1" points="1166.5,701.848 2302.38,1837.73 2302.63,1838.3 1166.75,702.421 "/>
     <polygon id="_275512088" class="fil1" points="1166.75,702.421 2302.63,1838.3 2302.97,1839.05 2303.3,1839.79 2303.63,1840.53 2303.96,1841.28 2304.28,1842.03 2304.6,1842.78 2304.93,1843.52 2305.25,1844.27 1169.36,708.391 1169.04,707.641 1168.72,706.893 1168.4,706.145 1168.07,705.399 1167.75,704.652 1167.42,703.908 1167.09,703.164 "/>
     <polygon id="_275512232" class="fil1" points="1169.36,708.391 2305.25,1844.27 2305.6,1845.11 1169.72,709.227 "/>
     <polygon id="_275512304" class="fil1" points="1169.72,709.227 2305.6,1845.11 2305.91,1845.84 2306.21,1846.58 2306.52,1847.32 2306.82,1848.05 2307.12,1848.79 2307.42,1849.53 2307.72,1850.27 2308.01,1851.01 1172.13,715.131 1171.83,714.389 1171.54,713.649 1171.24,712.909 1170.94,712.171 1170.64,711.433 1170.33,710.697 1170.02,709.961 "/>
     <polygon id="_275513024" class="fil1" points="1172.13,715.131 2308.01,1851.01 2308.32,1851.81 1172.44,715.923 "/>
     <polygon id="_275513312" class="fil1" points="1172.44,715.923 2308.32,1851.81 2308.64,1852.6 2308.95,1853.4 2309.25,1854.2 2309.56,1854.99 2309.86,1855.8 2310.16,1856.6 2310.46,1857.4 2310.76,1858.2 1174.88,722.319 1174.58,721.516 1174.28,720.714 1173.98,719.913 1173.68,719.112 1173.37,718.314 1173.06,717.517 1172.76,716.719 "/>
     <polygon id="_275512808" class="fil1" points="1174.88,722.319 2310.76,1858.2 2310.85,1858.46 1174.97,722.575 "/>
     <polygon id="_275512976" class="fil1" points="1174.97,722.575 2310.85,1858.46 2311.15,1859.28 2311.45,1860.11 2311.75,1860.94 2312.04,1861.76 2312.33,1862.59 2312.62,1863.43 2312.9,1864.26 2313.19,1865.09 1177.31,729.207 1177.02,728.375 1176.74,727.543 1176.45,726.712 1176.16,725.882 1175.86,725.053 1175.57,724.227 1175.27,723.4 "/>
     <polygon id="_275513144" class="fil1" points="1177.31,729.207 2313.19,1865.09 2313.42,1865.78 1177.54,729.893 "/>
     <polygon id="_275512592" class="fil1" points="1177.54,729.893 2313.42,1865.78 2313.68,1866.56 2313.94,1867.34 2314.2,1868.12 2314.45,1868.9 2314.7,1869.68 2314.96,1870.47 2315.2,1871.25 2315.45,1872.04 1179.57,736.158 1179.32,735.371 1179.07,734.586 1178.82,733.802 1178.57,733.019 1178.31,732.236 1178.06,731.454 1177.8,730.673 "/>
     <polygon id="_275512928" class="fil1" points="1179.57,736.158 2315.45,1872.04 2315.67,1872.76 1179.79,736.874 "/>
     <polygon id="_275512712" class="fil1" points="1179.79,736.874 2315.67,1872.76 2315.92,1873.56 2316.17,1874.37 2316.41,1875.18 2316.65,1875.98 2316.89,1876.79 2317.13,1877.6 2317.37,1878.41 2317.6,1879.23 1181.72,743.345 1181.49,742.532 1181.25,741.721 1181.01,740.911 1180.77,740.102 1180.53,739.294 1180.29,738.486 1180.04,737.679 "/>
     <polygon id="_275512664" class="fil1" points="1181.72,743.345 2317.6,1879.23 2317.75,1879.74 1181.86,743.853 "/>
     <polygon id="_275513264" class="fil1" points="1181.86,743.853 2317.75,1879.74 2317.99,1880.59 2318.23,1881.45 2318.46,1882.31 2318.7,1883.17 2318.93,1884.04 2319.16,1884.9 2319.39,1885.76 2319.61,1886.63 1183.73,750.745 1183.5,749.88 1183.28,749.017 1183.05,748.153 1182.82,747.291 1182.58,746.43 1182.34,745.57 1182.11,744.71 "/>
     <polygon id="_275513360" class="fil1" points="1183.73,750.745 2319.61,1886.63 2319.71,1887.03 1183.83,751.151 "/>
     <polygon id="_275513768" class="fil1" points="1183.83,751.151 2319.71,1887.03 2319.92,1887.86 2320.13,1888.69 2320.34,1889.52 2320.54,1890.35 2320.75,1891.18 2320.94,1892.01 2321.14,1892.85 2321.34,1893.68 1185.45,757.798 1185.26,756.964 1185.06,756.131 1184.86,755.299 1184.66,754.468 1184.46,753.637 1184.25,752.807 1184.04,751.979 "/>
     <polygon id="_275513816" class="fil1" points="1185.45,757.798 2321.34,1893.68 2321.51,1894.44 1185.63,758.559 "/>
     <polygon id="_275513984" class="fil1" points="1185.63,758.559 2321.51,1894.44 2321.7,1895.26 2321.88,1896.07 2322.06,1896.88 2322.24,1897.7 2322.42,1898.52 2322.59,1899.33 2322.76,1900.15 2322.93,1900.97 1187.05,765.089 1186.88,764.271 1186.71,763.452 1186.54,762.634 1186.36,761.818 1186.18,761.001 1186,760.186 1185.81,759.373 "/>
     <polygon id="_275513840" class="fil1" points="1187.05,765.089 2322.93,1900.97 2323.08,1901.67 1187.2,765.787 "/>
     <polygon id="_275513648" class="fil1" points="1187.2,765.787 2323.08,1901.67 2323.25,1902.54 2323.43,1903.42 2323.6,1904.29 2323.77,1905.17 2323.94,1906.04 2324.1,1906.92 2324.26,1907.8 2324.42,1908.68 1188.54,772.794 1188.38,771.915 1188.22,771.037 1188.05,770.16 1187.89,769.283 1187.72,768.408 1187.55,767.533 1187.37,766.66 "/>
     <polygon id="_275513864" class="fil1" points="1188.54,772.794 2324.42,1908.68 2324.44,1908.79 1188.56,772.91 "/>
     <polygon id="_275514080" class="fil1" points="1188.56,772.91 2324.44,1908.79 2324.45,1908.83 1188.57,772.947 "/>
     <polygon id="_275513696" class="fil1" points="1188.57,772.947 2324.45,1908.83 2324.45,1908.85 1188.57,772.969 "/>
     <polygon id="_275513744" class="fil1" points="1188.57,772.969 2324.45,1908.85 2324.61,1909.74 2324.76,1910.63 2324.91,1911.52 2325.06,1912.41 2325.21,1913.3 2325.35,1914.19 2325.49,1915.09 2325.63,1915.98 1189.75,780.1 1189.61,779.206 1189.47,778.312 1189.33,777.42 1189.18,776.527 1189.03,775.636 1188.88,774.747 1188.73,773.858 "/>
     <polygon id="_275514680" class="fil1" points="1189.75,780.1 2325.63,1915.98 2325.74,1916.68 1189.86,780.797 "/>
     <polygon id="_275514176" class="fil1" points="1189.86,780.797 2325.74,1916.68 2325.86,1917.52 2325.99,1918.37 2326.11,1919.22 2326.23,1920.06 2326.35,1920.91 2326.46,1921.76 2326.58,1922.61 2326.69,1923.46 1190.8,787.577 1190.7,786.727 1190.58,785.878 1190.47,785.03 1190.35,784.182 1190.23,783.334 1190.11,782.488 1189.98,781.641 "/>
     <polygon id="_275514464" class="fil1" points="1190.8,787.577 2326.69,1923.46 2326.77,1924.1 1190.89,788.215 "/>
     <polygon id="_275514248" class="fil1" points="1190.89,788.215 2326.77,1924.1 2326.88,1924.97 2326.98,1925.84 2327.09,1926.71 2327.19,1927.58 2327.28,1928.45 2327.38,1929.33 2327.47,1930.2 2327.56,1931.07 1191.68,795.192 1191.59,794.317 1191.5,793.443 1191.4,792.57 1191.3,791.697 1191.2,790.825 1191.1,789.955 1191,789.084 "/>
     <polygon id="_275514200" class="fil1" points="1191.68,795.192 2327.56,1931.07 2327.62,1931.56 1191.74,795.677 "/>
     <polygon id="_275514872" class="fil1" points="1191.74,795.677 2327.62,1931.56 2327.71,1932.48 2327.8,1933.39 2327.88,1934.31 2327.97,1935.23 2328.05,1936.15 2328.12,1937.07 2328.2,1937.99 2328.27,1938.91 1192.39,803.032 1192.32,802.11 1192.24,801.188 1192.16,800.268 1192.08,799.348 1192,798.429 1191.92,797.512 1191.83,796.594 "/>
     <polygon id="_275514392" class="fil1" points="1192.39,803.032 2328.27,1938.91 2328.3,1939.27 1192.41,803.391 "/>
     <polygon id="_275514656" class="fil1" points="1192.41,803.391 2328.3,1939.27 2328.36,1940.16 2328.42,1941.06 2328.48,1941.95 2328.54,1942.84 2328.6,1943.74 2328.65,1944.63 2328.7,1945.53 2328.75,1946.42 1192.87,810.542 1192.82,809.645 1192.77,808.75 1192.72,807.855 1192.66,806.96 1192.6,806.066 1192.54,805.175 1192.48,804.282 "/>
     <polygon id="_275514752" class="fil1" points="1192.87,810.542 2328.75,1946.42 2328.78,1947.11 1192.9,811.224 "/>
     <polygon id="_275515520" class="fil1" points="1192.9,811.224 2328.78,1947.11 2328.83,1947.98 2328.87,1948.86 2328.9,1949.74 2328.94,1950.62 2328.97,1951.5 2329,1952.38 2329.02,1953.26 2329.05,1954.14 1193.17,818.258 1193.14,817.377 1193.12,816.496 1193.09,815.616 1193.05,814.736 1193.02,813.857 1192.98,812.979 1192.94,812.102 "/>
     <polygon id="_275515304" class="fil1" points="1193.17,818.258 2329.05,1954.14 2329.07,1954.72 1193.18,818.842 "/>
     <polygon id="_275515184" class="fil1" points="1193.18,818.842 2329.07,1954.72 2329.09,1955.67 2329.11,1956.61 2329.12,1957.56 2329.14,1958.5 2329.15,1959.45 2329.16,1960.39 2329.16,1961.34 2329.16,1962.29 1193.28,826.407 1193.28,825.459 1193.27,824.512 1193.27,823.566 1193.26,822.62 1193.24,821.675 1193.23,820.73 1193.21,819.786 "/>
     <polygon id="_275515328" class="fil1" points="1193.28,826.407 2329.16,1962.29 2329.16,1962.31 1193.28,826.426 "/>
     <polygon id="_275515616" class="fil1" points="1193.28,826.426 2329.16,1962.31 2329.16,1962.33 1193.28,826.446 "/>
     <polygon id="_275515112" class="fil1" points="1193.28,826.446 2329.16,1962.33 2329.16,1962.35 1193.28,826.465 "/>
     <polygon id="_275515280" class="fil1" points="1193.28,826.465 2329.16,1962.35 2329.16,1962.37 1193.28,826.485 "/>
     <polygon id="_275515448" class="fil1" points="1193.28,826.485 2329.16,1962.37 2329.16,1962.39 1193.28,826.504 "/>
     <polygon id="_275515016" class="fil1" points="1193.28,826.504 2329.16,1962.39 2329.16,1962.41 1193.28,826.524 "/>
     <polygon id="_275515040" class="fil1" points="1193.28,826.524 2329.16,1962.41 2329.16,1962.43 1193.28,826.543 "/>
     <polygon id="_275515256" class="fil1" points="1193.28,826.543 2329.16,1962.43 2329.16,1962.45 1193.28,826.563 "/>
     <polygon id="_275515784" class="fil1" points="1193.28,826.563 2329.16,1962.45 2329.16,1962.46 1193.28,826.582 "/>
     <polygon id="_275516096" class="fil1" points="1193.28,826.582 2329.16,1962.46 2329.16,1962.48 1193.28,826.602 "/>
     <polygon id="_275515688" class="fil1" points="1193.28,826.602 2329.16,1962.48 2329.16,1962.5 1193.28,826.621 "/>
     <polygon id="_275516048" class="fil1" points="1193.28,826.621 2329.16,1962.5 2329.16,1962.52 1193.28,826.641 "/>
     <polygon id="_275516072" class="fil1" points="1193.28,826.641 2329.16,1962.52 2329.16,1962.54 1193.28,826.66 "/>
     <polygon id="_275516192" class="fil1" points="1193.28,826.66 2329.16,1962.54 2329.16,1962.56 1193.28,826.68 "/>
     <polygon id="_275516840" class="fil1" points="1193.28,826.68 2329.16,1962.56 2329.16,1962.62 1193.28,826.738 "/>
     <polygon id="_275516912" class="fil1" points="1193.28,826.738 2329.16,1962.62 2329.16,1962.64 1193.28,826.757 "/>
     <polygon id="_275517008" class="fil1" points="1193.28,826.757 2329.16,1962.64 2329.15,1964.35 1193.27,828.467 "/>
     <polygon id="_275517080" class="fil1" points="1193.27,828.467 2329.15,1964.35 2329.15,1964.4 1193.27,828.513 "/>
     <polygon id="_275516432" class="fil1" points="1193.27,828.513 2329.15,1964.4 2329.15,1964.44 1193.27,828.558 "/>
     <polygon id="_275516744" class="fil1" points="1193.27,828.558 2329.15,1964.44 2329.15,1964.49 1193.27,828.604 "/>
     <polygon id="_275516456" class="fil1" points="1193.27,828.604 2329.15,1964.49 2329.15,1964.52 1193.27,828.635 "/>
     <polygon id="_275516720" class="fil1" points="1193.27,828.635 2329.15,1964.52 2329.16,1966.44 1193.28,830.559 "/>
     <polygon id="_275516528" class="fil1" points="1193.28,830.559 2329.16,1966.44 2329.15,1968.71 2329.13,1970.97 2329.09,1973.22 2329.03,1975.48 2328.96,1977.73 2328.87,1979.97 2328.76,1982.21 2328.64,1984.45 2328.5,1986.68 2328.35,1988.91 2328.18,1991.13 2328,1993.35 2327.8,1995.57 2327.58,1997.78 2327.35,1999.98 2327.1,2002.19 2326.84,2004.38 2326.56,2006.57 2326.27,2008.76 2325.96,2010.94 2325.64,2013.12 2325.3,2015.29 2324.95,2017.46 2324.58,2019.62 2324.19,2021.77 2323.79,2023.93 2323.38,2026.07 2322.95,2028.21 2322.51,2030.35 2322.05,2032.48 2321.58,2034.6 2321.09,2036.72 1185.21,900.838 1185.69,898.719 1186.17,896.594 1186.62,894.465 1187.07,892.329 1187.5,890.189 1187.91,888.043 1188.31,885.891 1188.7,883.736 1189.06,881.573 1189.42,879.407 1189.76,877.235 1190.08,875.058 1190.39,872.877 1190.68,870.69 1190.96,868.498 1191.22,866.303 1191.47,864.101 1191.7,861.896 1191.92,859.685 1192.12,857.47 1192.3,855.251 1192.47,853.028 1192.62,850.799 1192.76,848.567 1192.88,846.33 1192.99,844.09 1193.08,841.844 1193.15,839.596 1193.21,837.342 1193.25,835.085 1193.27,832.824 "/>
     <polygon id="_275516888" class="fil1" points="1580.76,516.796 2716.64,1652.68 2717.46,1653.68 2718.17,1654.76 2718.77,1655.89 2719.24,1657.09 2719.59,1658.34 2719.81,1659.63 2719.88,1660.95 2719.88,1694.08 2719.81,1695.4 2719.59,1696.69 2719.24,1697.94 2718.77,1699.13 2718.17,1700.27 2717.46,1701.35 2716.64,1702.35 2715.73,1703.27 2714.72,1704.12 2713.63,1704.87 2712.47,1705.52 2711.23,1706.07 2709.94,1706.51 2708.59,1706.84 2707.19,1707.04 2705.75,1707.1 2590.3,1707.1 2588.71,1707.02 2587.18,1706.78 2585.71,1706.39 2584.3,1705.87 2582.97,1705.2 2581.74,1704.42 2580.6,1703.53 2579.56,1702.53 1443.68,566.647 1444.71,567.646 1445.85,568.542 1447.09,569.322 1448.42,569.983 1449.82,570.511 1451.3,570.899 1452.83,571.139 1454.42,571.221 1569.87,571.221 1571.31,571.153 1572.7,570.955 1574.06,570.632 1575.35,570.192 1576.59,569.641 1577.75,568.987 1578.84,568.236 1579.85,567.393 1580.76,566.467 1581.58,565.463 1582.29,564.389 1582.89,563.25 1583.36,562.055 1583.71,560.809 1583.93,559.519 1584,558.193 1584,525.07 1583.93,523.744 1583.71,522.454 1583.36,521.208 1582.89,520.013 1582.29,518.874 1581.58,517.8 "/>
     <polygon id="_275517248" class="fil1" points="1443.68,566.647 2579.56,1702.53 2564.67,1702.53 1428.79,566.647 "/>
     <polygon id="_275517368" class="fil1" points="1428.79,566.647 2564.67,1702.53 2455.04,2036.72 1319.16,900.838 "/>
     <polygon id="_275517464" class="fil1" points="1319.57,900.838 2455.45,2036.72 2314.39,2513.08 1178.51,1377.2 "/>
     <polygon id="_275485328" class="fil1" points="1178.51,1377.2 2314.39,2513.08 2180.48,2513.08 1044.59,1377.2 "/>
     <polygon id="_275485592" class="fil1" points="1014.72,1377.2 2150.6,2513.08 1904.73,2513.08 768.851,1377.2 "/>
     <polygon id="_275485352" class="fil1" points="1084.05,1397.11 2219.93,2532.99 2222.37,2535.35 2224.71,2537.82 2226.95,2540.37 2229.08,2543.03 2231.1,2545.77 2233,2548.6 2234.78,2551.52 2236.44,2554.51 2237.98,2557.59 2239.38,2560.73 2240.65,2563.95 2241.79,2567.23 2242.78,2570.57 2243.63,2573.98 2244.34,2577.44 2244.89,2580.95 2245.29,2584.51 2245.53,2588.11 2245.62,2591.76 2245.51,2595.88 2245.2,2599.95 2244.69,2603.96 2243.99,2607.9 2243.09,2611.77 2242.02,2615.57 2240.76,2619.29 2239.32,2622.93 2237.72,2626.48 2235.95,2629.93 2234.02,2633.28 2231.94,2636.53 2229.71,2639.67 2227.33,2642.7 2224.81,2645.6 2222.16,2648.39 2219.38,2651.04 2216.47,2653.55 2213.45,2655.93 2210.31,2658.16 2207.06,2660.25 2203.71,2662.17 2200.25,2663.94 2196.71,2665.55 2193.07,2666.98 2189.35,2668.24 2185.55,2669.32 2181.67,2670.21 2177.73,2670.92 2173.72,2671.43 2169.66,2671.74 2165.54,2671.84 2161.42,2671.74 2157.35,2671.43 2153.34,2670.92 2149.4,2670.21 2145.52,2669.32 2141.72,2668.24 2138,2666.98 2134.37,2665.55 2130.82,2663.94 2127.37,2662.17 2124.01,2660.25 2120.76,2658.16 2117.62,2655.93 2114.6,2653.55 2111.69,2651.04 975.812,1515.15 978.718,1517.67 981.744,1520.05 984.883,1522.28 988.132,1524.36 991.485,1526.29 994.938,1528.06 998.486,1529.66 1002.12,1531.1 1005.84,1532.36 1009.64,1533.44 1013.52,1534.33 1017.46,1535.04 1021.47,1535.54 1025.53,1535.85 1029.66,1535.96 1033.78,1535.85 1037.84,1535.54 1041.85,1535.04 1045.79,1534.33 1049.67,1533.44 1053.47,1532.36 1057.19,1531.1 1060.82,1529.66 1064.37,1528.06 1067.82,1526.29 1071.18,1524.36 1074.43,1522.28 1077.57,1520.05 1080.59,1517.67 1083.5,1515.15 1086.28,1512.5 1088.93,1509.72 1091.45,1506.82 1093.82,1503.79 1096.06,1500.65 1098.14,1497.4 1100.07,1494.05 1101.84,1490.6 1103.44,1487.05 1104.87,1483.41 1106.13,1479.69 1107.21,1475.89 1108.11,1472.02 1108.81,1468.07 1109.32,1464.07 1109.63,1460 1109.73,1455.88 1109.65,1452.23 1109.41,1448.63 1109.01,1445.06 1108.46,1441.55 1107.75,1438.09 1106.9,1434.69 1105.91,1431.35 1104.77,1428.07 1103.5,1424.85 1102.1,1421.7 1100.56,1418.63 1098.9,1415.64 1097.12,1412.72 1095.22,1409.89 1093.2,1407.15 1091.07,1404.49 1088.83,1401.93 1086.49,1399.47 "/>
     <polygon id="_275485376" class="fil1" points="738.97,1377.2 1874.85,2513.08 1740.94,2513.08 605.057,1377.2 "/>
     <polygon id="_275485424" class="fil1" points="808.302,1397.11 1944.18,2532.99 1946.63,2535.35 1948.97,2537.82 1951.21,2540.37 1953.34,2543.03 1955.36,2545.77 1957.26,2548.6 1959.04,2551.52 1960.7,2554.51 1962.23,2557.59 1963.64,2560.73 1964.91,2563.95 1966.04,2567.23 1967.04,2570.57 1967.89,2573.98 1968.59,2577.44 1969.15,2580.95 1969.55,2584.51 1969.79,2588.11 1969.87,2591.76 1969.77,2595.88 1969.46,2599.95 1968.95,2603.96 1968.24,2607.9 1967.35,2611.77 1966.27,2615.57 1965.01,2619.29 1963.58,2622.93 1961.97,2626.48 1960.21,2629.93 1958.28,2633.28 1956.2,2636.53 1953.96,2639.67 1951.58,2642.7 1949.07,2645.6 1946.42,2648.39 1943.64,2651.04 1940.73,2653.55 1937.7,2655.93 1934.56,2658.16 1931.32,2660.25 1927.96,2662.17 1924.51,2663.94 1920.96,2665.55 1917.33,2666.98 1913.6,2668.24 1909.81,2669.32 1905.93,2670.21 1901.99,2670.92 1897.98,2671.43 1893.91,2671.74 1889.79,2671.84 1885.67,2671.74 1881.6,2671.43 1877.6,2670.92 1873.65,2670.21 1869.78,2669.32 1865.98,2668.24 1862.26,2666.98 1858.62,2665.55 1855.08,2663.94 1851.62,2662.17 1848.27,2660.25 1845.02,2658.16 1841.88,2655.93 1838.85,2653.55 702.973,1517.67 705.999,1520.05 709.138,1522.28 712.387,1524.36 715.74,1526.29 719.194,1528.06 722.741,1529.66 726.377,1531.1 730.098,1532.36 733.899,1533.44 737.773,1534.33 741.716,1535.04 745.724,1535.54 749.79,1535.85 753.911,1535.96 758.032,1535.85 762.099,1535.54 766.106,1535.04 770.05,1534.33 773.924,1533.44 777.723,1532.36 781.445,1531.1 785.081,1529.66 788.629,1528.06 792.081,1526.29 795.434,1524.36 798.683,1522.28 801.823,1520.05 804.849,1517.67 807.754,1515.15 810.534,1512.5 813.186,1509.72 815.703,1506.82 818.081,1503.79 820.314,1500.65 822.396,1497.4 824.325,1494.05 826.093,1490.6 827.697,1487.05 829.131,1483.41 830.39,1479.69 831.468,1475.89 832.364,1472.02 833.068,1468.07 833.577,1464.07 833.886,1460 833.99,1455.88 833.909,1452.23 833.666,1448.63 833.266,1445.06 832.712,1441.55 832.008,1438.09 831.157,1434.69 830.162,1431.35 829.027,1428.07 827.756,1424.85 826.352,1421.7 824.818,1418.63 823.158,1415.64 821.376,1412.72 819.474,1409.89 817.457,1407.15 815.327,1404.49 813.089,1401.93 810.747,1399.47 "/>
    </g>
    <path id="_385666072" class="fil1" d="M891.066 524.193c93.9839,0 177.945,42.9024 233.374,110.19 1.40433,1.70551 2.79095,3.42756 4.15866,5.16378l0.557481 0.713386c1.26142,1.61102 2.50748,3.23504 3.73701,4.87323l0.65315 0.872835c1.25669,1.68662 2.49567,3.38622 3.71811,5.1l0.4063 0.56693c1.3063,1.84134 2.59488,3.69685 3.86103,5.56772l0.398032 0.594095c1.18937,1.76693 2.36103,3.54803 3.51496,5.34095l0.496063 0.777166c1.12205,1.7563 2.22638,3.52559 3.31299,5.3067l0.465355 0.762993c1.1374,1.87677 2.25473,3.76536 3.35197,5.6693l0.26811 0.461811c1.12677,1.96299 2.22992,3.94016 3.31418,5.93032l0.364961 0.676772c1.02165,1.8874 2.02441,3.78662 3.00709,5.69882l0.356693 0.694489c0.994489,1.94646 1.96654,3.90473 2.91969,5.87599l0.269292 0.553937c0.998032,2.0752 1.97362,4.16339 2.92559,6.26457l0.256299 0.572835c0.891733,1.97953 1.76102,3.96969 2.61142,5.97048l0.351969 0.83504c0.82441,1.95709 1.62992,3.92599 2.41299,5.90434l0.314173 0.79252c0.833859,2.12126 1.64528,4.25197 2.43189,6.39567l0.0944883 0.256299c0.804331,2.19803 1.5815,4.41024 2.33622,6.63189l0.230315 0.686221c0.700394,2.07874 1.37835,4.16693 2.03386,6.26457l0.223229 0.715749c0.664961,2.14725 1.30748,4.30394 1.9252,6.47126l0.145276 0.507874c0.648426,2.28662 1.26969,4.58504 1.86496,6.89174l0.102756 0.4063c0.565748,2.2063 1.10669,4.42205 1.62284,6.64725l0.174803 0.760631c0.497244,2.16732 0.972048,4.34528 1.42205,6.53032l0.144095 0.698032c0.473622,2.32559 0.923623,4.66181 1.34291,7.0063l0.022441 0.116929 0.00590552 0.0366142 0.00354331 0.022441c0.422835,2.36693 0.81378,4.74449 1.1811,7.13032l0.105118 0.696851c0.341339,2.25236 0.657875,4.513 0.948426,6.78071l0.0814961 0.637796c0.292914,2.31732 0.557481,4.64292 0.797245,6.97678l0.0519685 0.485433c0.246851,2.44252 0.465355,4.89567 0.65315,7.35473l0.0259843 0.359055c0.179528,2.3752 0.328347,4.75867 0.452363,7.1504l0.034252 0.682678c0.116929,2.33858 0.204331,4.68189 0.266929,7.03347l0.0165354 0.584646c0.0637796,2.51457 0.0956694,5.03622 0.0956694,7.56497l0 0.0188977 0 0.0200788 0 0.0188977 0 0.0200788 0 0.0188977 0 0.0200788 0 0.0188977 -0.0011811 0.0200788 0 0.0188977 0 0.0200788 0 0.0188977 0 0.0200788 0 0.0188977 0 0.0200788 -0.0011811 0.0578741 0 0.0188977 -0.00590552 1.71024 0 0.046063 0 0.0448819 0 0.046063 0 0.0307087 0.00826772 1.92402c0,24.1807 -2.79449,47.7083 -8.07402,70.2792l79.643 0 120.734 -368.018 5.86182 -17.8713 18.6744 0 35.4225 0c2.42953,-1.81654 5.52048,-2.9067 8.87481,-2.9067l115.449 0c7.7752,0 14.1354,5.86418 14.1354,13.0276l0 33.1229c0,7.16339 -6.36378,13.0276 -14.1354,13.0276l-115.449 0c-4.2815,0 -8.13426,-1.77756 -10.7327,-4.57323l-14.8925 0 -109.636 334.191 0.411024 0 -141.057 476.358 -133.915 0c37.0855,7.0004 65.139,39.5634 65.139,78.6827 0,44.2252 -35.8536,80.0788 -80.0788,80.0788 -44.2252,0 -80.0788,-35.8536 -80.0788,-80.0788 0,-39.1193 28.0536,-71.6823 65.139,-78.6827l-245.864 0c37.0855,7.0004 65.139,39.5634 65.139,78.6827 0,44.2252 -35.8536,80.0788 -80.0788,80.0788 -44.2264,0 -80.08,-35.8536 -80.08,-80.0788 0,-39.1193 28.0536,-71.6823 65.139,-78.6827l-133.913 0 -141.058 -476.358 134.105 0 -0.257481 -1.0311 -0.954331 -3.91063 -0.741733 -3.25394 -0.831497 -3.82087 -0.68504 -3.36969 -0.729922 -3.80788 -0.602363 -3.36496 -0.650788 -3.92599 -0.512599 -3.31654 -0.562205 -4.01811 -0.432284 -3.30236c-0.166536,-1.34764 -0.314173,-2.70236 -0.462992,-4.05591l-0.355512 -3.32244c-0.138189,-1.39725 -0.253937,-2.8004 -0.373229,-4.20237l-0.264567 -3.19016c-0.113386,-1.52126 -0.200788,-3.05079 -0.290551,-4.57914l-0.170079 -2.86181c-0.0885827,-1.76339 -0.144095,-3.53622 -0.200788,-5.30788l-0.0779528 -2.20276c-0.068504,-2.52047 -0.0968505,-5.0504 -0.0968505,-7.58623l0 -0.0354331 0 -0.0366142 0 -0.0354331 0 -0.0354331 0 -0.0366142 0 -0.0354331 0 -0.0366142 0.0011811 -0.0354331 0 -0.0354331 0 -0.0366142 0 -0.0354331 0 -0.0354331 0 -0.0366142 0.0011811 -0.10748 0 -0.0354331 0 -0.0354331 0.0106299 -2.19803 0 -0.0259843 0 -0.0259843 -0.0129921 -1.0748c0,-23.2996 2.61496,-45.9851 7.54489,-67.7953 0.78189,-1.81417 1.5815,-3.61772 2.40118,-5.41063 21.215,-80.5524 74.8607,-147.944 146.123,-187.394 0.499607,-0.250394 1.02284,-0.575197 1.5189,-0.848032l1.30866 -0.708662c1.64882,-0.889371 3.30591,-1.76457 4.97244,-2.62441 2.17677,-1.11496 4.35591,-2.21457 6.5563,-3.2811l1.49646 -0.721654c1.7315,-0.829134 3.47126,-1.64173 5.22048,-2.4378 2.27008,-1.02874 4.5437,-2.03504 6.83741,-3.01181 2.22166,-0.937796 4.44685,-1.85906 6.68859,-2.75079 2.31614,-0.912993 4.63583,-1.80709 6.97205,-2.66929 2.3315,-0.855119 4.66654,-1.69016 7.01812,-2.49213 2.40591,-0.81378 4.81418,-1.60866 7.2378,-2.36693 2.34921,-0.726379 4.69843,-1.43622 7.063,-2.11299 2.4,-0.680315 4.80118,-1.34055 7.21654,-1.96654 2.42244,-0.625985 4.84961,-1.2248 7.28741,-1.79173 2.48622,-0.578741 4.97717,-1.12559 7.47638,-1.64055 2.46732,-0.50315 4.93583,-0.983859 7.41497,-1.43032 2.45197,-0.435827 4.90512,-0.849213 7.36654,-1.23071 2.53465,-0.392126 5.07166,-0.751182 7.61457,-1.07717 2.5441,-0.323622 5.08819,-0.62126 7.63938,-0.883465l0.741733 -0.0744095c2.29843,-0.229134 4.60512,-0.434646 6.9189,-0.614174l0.126378 -0.0106299 0.962599 -0.0661418 0.32126 -0.0212599 0.32126 -0.0200788 0.32126 -0.0212599 0.32126 -0.0200788 0.32126 -0.0200788c6.90237,-0.474804 13.8626,-0.731103 20.8843,-0.731103z"/>
   </g>
  </g>
  <path class="fil2" d="M1024 -0.0011811c565.541,0 1024,458.461 1024,1024 0,565.541 -458.461,1024 -1024,1024 -565.541,0 -1024,-458.461 -1024,-1024 0,-565.541 458.461,-1024 1024,-1024z"/>
  <ellipse class="fil3" cx="891.066" cy="826.408" rx="302.215" ry="302.215"/>
  <path class="fil4" d="M746.438 560.989c36.4866,-19.924 77.5323,-32.5465 121.174,-35.8961 6.84213,-0.478347 13.7469,-0.724016 20.7095,-0.724016 44.7414,0 86.9422,10.3158 124.852,28.1563l-10.5661 1.56732 -28.7197 -4.29213 -20.4118 13.5756 -14.3965 15.9555 -52.2981 4.82835 -21.6036 -3.57048 -14.739 23.2358 -43.1067 2.47205 -27.065 -7.83544 -23.9776 13.1988 -52.1126 7.20709 -41.7378 12.1358 -0.0933072 0c23.3055,-28.2874 51.8315,-52.1103 84.0922,-70.0146zm154.296 -7.45867l29.9752 -16.4917 19.2225 11.1295 -27.8788 21.1323 -26.5229 2.73071 -11.9421 -7.84134 17.1461 -10.6595zm-88.6678 2.37992l13.1988 5.54882 17.3386 -5.54882 9.37678 16.3984 -39.9142 10.4752 -19.2225 -11.2937c0,0 18.7536,-12.0354 19.2225,-15.5799z"/>
  <path class="fil5" d="M1123.13 635.012c43.826,53.1544 70.1504,121.277 70.1504,195.548 0,48.4158 -11.2004,94.2107 -31.1292,134.959 -23.3504,26.4898 -52.3784,48.2126 -85.6631,63.0815l1.47402 -17.1567c43.2898,-42.2587 29.4662,-59.0906 69.267,-87.4761l17.8252 -58.0004 -47.5075 -17.263c-16.6335,-13.0701 -19.6795,-21.5634 -40.2213,-20.1768 -9.17127,-0.721654 -18.3425,-1.44921 -27.5138,-2.17087 -7.75867,0.223229 -15.5102,0.451181 -23.2689,0.67441 -6.24095,3.06496 -12.4878,6.1252 -18.7288,9.18898 -13.1575,-10.1563 -10.9536,-10.9228 -27.3957,-12.5811 -0.765355,-6.12284 -1.53543,-12.2433 -2.29961,-18.365 -4.84725,1.06181 -9.69922,2.13189 -14.5453,3.1937 -2.19331,3.70985 -4.38544,7.41379 -6.57756,11.1224 -10.1835,-23.0811 -11.6091,-17.0185 8.96694,-31.8603 7.09961,1.79764 14.198,3.59528 21.2965,5.39292 3.52559,-0.655512 7.05001,-1.31221 10.5756,-1.96772 2.25827,-39.724 31.5591,-62.9871 60.8705,-85.3619 8.05749,-0.43937 16.1102,-0.872835 24.1677,-1.31339 -0.00590552,-3.98977 -0.0106299,-7.97599 -0.0165354,-11.9669 -24.5481,-17.1898 -31.8803,-20.5146 -50.0268,-44.4508 -40.8107,7.58977 -49.7918,-19.4894 -49.3004,26.4591 -9.0756,-0.0602363 -18.1465,-0.115748 -27.2232,-0.177165 -1.6689,-5.263 -3.33662,-10.5213 -5.0067,-15.7843 25.9016,-11.1106 19.3299,-8.5878 20.6209,-38.3941 7.16812,1.49055 14.3433,2.98701 21.5114,4.47874 0.582284,4.11851 1.16457,8.2382 1.74567,12.3579 9.64607,2.06575 17.3658,3.61063 27.1795,4.60394 3.75473,-2.94213 7.50355,-5.8878 11.2595,-8.82993 -10.0087,-13.6406 -22.5709,-21.9579 -40.4032,-28.9488 -0.477166,-3.55866 -0.961418,-7.11615 -1.43858,-10.6736 37.7362,0.344882 45.4571,9.04489 63.2327,42.4607 12.163,7.46575 24.3295,14.9291 36.4914,22.3949l8.53347 1.03583 7.7256 -19.7634 15.3721 -4.26969z"/>
  <path class="fil5" d="M862.636 1126.94c-153.871,-16.1953 -273.786,-146.339 -273.786,-304.499 0,-23.2996 2.61496,-45.9851 7.54489,-67.7953 4.4374,-10.2992 9.49371,-20.2689 15.1181,-29.8618l19.2449 -4.4126 -19.3288 15.2303 15.1689 9.99922 30.0721 0 44.7272 -7.99843c9.38859,15.248 18.7843,30.5008 28.1729,45.7489 0,57.0189 4.18465,48.4996 38.3918,94.8898 2.17087,0 4.33465,0 6.50552,0 0,-6.13583 0,-12.2669 0,-18.4028 24.9579,17.2784 87.7442,38.2335 97.4056,66.5634 -5.97402,12.4429 -11.941,24.8858 -17.915,37.3288 6.49961,12.0484 12.9933,24.0969 19.4917,36.1477 0,0 12.3284,41.6563 12.3284,43.3181 0,1.57795 -12.3284,49.8237 -12.3284,49.8237l2.83583 32.5028c-4.53307,0.540945 -9.07914,1.02992 -13.65,1.41732z"/>
  <path class="fil4" d="M1124.36 634.28c43.0595,52.2248 68.9233,119.157 68.9233,192.128 0,47.5701 -11.0043,92.5642 -30.5847,132.6 -22.9417,26.0256 -51.4619,47.3693 -84.1654,61.9784l1.44803 -16.8567c42.5327,-41.5193 28.9512,-58.0571 68.0564,-85.9465l17.5134 -56.9859 -46.6772 -16.9606c-16.3417,-12.8421 -19.3347,-21.1866 -39.5185,-19.8248 -9.00946,-0.708662 -18.0213,-1.42323 -27.0319,-2.13307 -7.62284,0.219685 -15.2386,0.442914 -22.8614,0.662599 -6.13229,3.01181 -12.2693,6.01772 -18.4016,9.02835 -12.9272,-9.97796 -10.761,-10.7315 -26.9162,-12.3602 -0.752363,-6.01536 -1.50827,-12.0295 -2.25945,-18.0449 -4.76339,1.0441 -9.53032,2.0941 -14.2913,3.13819 -2.15433,3.64488 -4.30866,7.28386 -6.463,10.9287 -10.0039,-22.6784 -11.4059,-16.7209 8.81103,-31.304 6.97441,1.76575 13.9488,3.5315 20.9244,5.29843 3.46299,-0.643701 6.92599,-1.28858 10.389,-1.93228 2.22047,-39.0296 31.0087,-61.8863 59.8063,-83.869 7.91694,-0.433465 15.8291,-0.858662 23.7461,-1.29095 -0.00590552,-3.92126 -0.0106299,-7.83662 -0.0165354,-11.7579 -24.1193,-16.8886 -31.3229,-20.1555 -49.1516,-43.6737 -40.0973,7.4563 -48.9213,-19.148 -48.4382,25.9961 -8.91733,-0.0590552 -17.8288,-0.113386 -26.7473,-0.173622 -1.64055,-5.17205 -3.27874,-10.3382 -4.9193,-15.5091 25.4492,-10.9158 18.9921,-8.4378 20.2595,-37.7221 7.0441,1.46457 14.0929,2.93386 21.1358,4.39961 0.572835,4.04764 1.14331,8.09528 1.71614,12.1429 9.47599,2.03032 17.061,3.54685 26.7024,4.52363 3.68977,-2.89016 7.37363,-5.78504 11.0634,-8.67638 -9.83387,-13.402 -22.1764,-21.5729 -39.6969,-28.4421 -0.468898,-3.49607 -0.943702,-6.99095 -1.4126,-10.487 37.0748,0.338977 44.6611,8.88662 62.126,41.7177 11.9504,7.33583 23.9043,14.6693 35.8536,22.0028l8.38465 1.01811 7.59095 -19.4173 15.1028 -4.19528z"/>
  <path class="fil4" d="M859.066 1126.94c-151.864,-15.9839 -270.215,-144.43 -270.215,-300.529 0,-22.9949 2.58071,-45.3851 7.44686,-66.9095 4.37835,-10.1658 9.36969,-20.0055 14.9209,-29.4733l18.9933 -4.35473 -19.076 15.0307 14.9705 9.8693 29.6799 0 44.1449 -7.89449c9.26576,15.0496 18.5386,30.104 27.8055,45.1524 0,56.2748 4.12914,47.8678 37.891,93.6532 2.14134,0 4.27796,0 6.42048,0 0,-6.0567 0,-12.1075 0,-18.1642 24.6319,17.054 86.5997,37.7351 96.1347,65.6965 -5.89607,12.2811 -11.785,24.561 -17.6811,36.8422 6.41457,11.8913 12.8244,23.7827 19.2378,35.6764 0,0 12.1677,41.113 12.1677,42.7536 0,1.55669 -12.1677,49.1741 -12.1677,49.1741l2.79921 32.0788c-4.4752,0.533859 -8.96103,1.01575 -13.4728,1.39843z"/>
  <polygon class="fil6" points="1215.07,1052.58 1385.58,532.82 1391.44,514.949 1410.12,514.949 1574.08,514.949 1574.08,566.646 1428.79,566.646 1264.14,1068.53 "/>
  <polygon class="fil7" points="463.999,900.838 1319.57,900.838 1178.51,1377.2 605.056,1377.2 "/>
  <path class="fil8" d="M1454.42 512.043l115.448 0c7.7752,0 14.1366,5.86418 14.1366,13.0276l0 33.1229c0,7.16457 -6.36378,13.0288 -14.1366,13.0288l-115.448 0c-7.77284,0 -14.1354,-5.86182 -14.1354,-13.0288l0 -33.1229c0,-7.16575 6.36024,-13.0276 14.1354,-13.0276z"/>
  <ellipse class="fil9" cx="1029.65" cy="1455.88" rx="49.5732" ry="49.5731"/>
  <path class="fil10" d="M1029.66 1375.8c44.2252,0 80.0788,35.8524 80.0788,80.0788 0,44.2252 -35.8536,80.0788 -80.0788,80.0788 -44.2252,0 -80.0788,-35.8536 -80.0788,-80.0788 0,-44.2264 35.8536,-80.0788 80.0788,-80.0788zm0 32.2831c26.3953,0 47.7945,21.3992 47.7945,47.7957 0,26.3953 -21.3992,47.7945 -47.7945,47.7945 -26.3965,0 -47.7957,-21.3992 -47.7957,-47.7945 0,-26.3965 21.3992,-47.7957 47.7957,-47.7957z"/>
  <ellipse class="fil11" cx="1029.65" cy="1455.88" rx="39.1041" ry="39.104"/>
  <ellipse class="fil9" cx="753.91" cy="1455.88" rx="49.5732" ry="49.5731"/>
  <path class="fil10" d="M753.91 1375.8c44.2252,0 80.0788,35.8524 80.0788,80.0788 0,44.2252 -35.8536,80.0788 -80.0788,80.0788 -44.2252,0 -80.0788,-35.8536 -80.0788,-80.0788 0,-44.2264 35.8536,-80.0788 80.0788,-80.0788zm0 32.2831c26.3965,0 47.7957,21.3992 47.7957,47.7957 0,26.3953 -21.3992,47.7945 -47.7957,47.7945 -26.3953,0 -47.7945,-21.3992 -47.7945,-47.7945 0,-26.3965 21.3992,-47.7957 47.7945,-47.7957z"/>
  <ellipse class="fil11" cx="753.91" cy="1455.88" rx="39.1041" ry="39.104"/>
 </g>
</svg>
